<svg width="512" height="512" viewBox="0 0 512 512" fill="none" xmlns="http://www.w3.org/2000/svg">
<path fill-rule="evenodd" clip-rule="evenodd" d="M185.051 1.07699C119.402 8.48599 63.2 44.25 29.595 100C15.805 122.877 7.25399 146.262 2.33999 174.543C-0.279011 189.611 -0.0390105 224.53 2.78899 240C14.807 305.745 53.56 358.738 111.513 388.678C142.516 404.695 170.58 411.452 206 411.426C249.141 411.396 284.513 400.726 320.468 376.899L332.435 368.968L401.968 438.328C448.867 485.112 472.802 508.301 475.5 509.571C480.919 512.123 492.172 512.144 497 509.612C509.031 503.302 514.545 490.348 510.505 477.887C508.85 472.782 505.094 468.829 438.821 402.418L368.883 332.337L376.608 320.918C413.706 266.086 421.853 197.536 398.823 134C391.275 113.176 376.868 88.981 361.266 70.926C335.287 40.863 298.515 17.638 260.832 7.49299C237.776 1.28599 206.59 -1.35401 185.051 1.07699ZM220.789 52.063C258.826 56.228 288.5 70.349 315.066 96.928C342.16 124.034 356.573 154.798 360.17 193.201C363.385 227.53 354.187 262.501 333.908 293.047C325.487 305.732 305.732 325.487 293.047 333.908C241.754 367.96 178.739 369.751 126.603 338.639C88.981 316.187 62.514 278.404 53.816 234.728C50.634 218.748 50.634 193.252 53.816 177.272C62.786 132.232 90.526 93.811 130.488 71.078C157.196 55.886 190.893 48.79 220.789 52.063Z" fill="black"/>
</svg>
