<svg width="66" height="44" viewBox="0 0 66 44" fill="none" xmlns="http://www.w3.org/2000/svg">
<path fill-rule="evenodd" clip-rule="evenodd" d="M39.5229 1.51003C37.8729 2.39903 35.5529 4.03603 34.3669 5.14603C32.6359 6.76803 31.8128 6.95203 30.1828 6.08003C22.9868 2.22803 12.0228 9.28603 12.0228 17.77C12.0228 19.173 11.1358 19.921 8.95785 20.357C0.240849 22.1 -2.93915 32.551 3.14085 39.476L6.25985 43.028L31.2839 42.761L56.3089 42.494L58.3079 39.815C59.4079 38.341 60.3668 35.641 60.4398 33.815C60.5118 31.988 61.5719 28.919 62.7939 26.994C64.3739 24.504 65.0169 21.95 65.0189 18.145C65.0269 7.32003 59.0798 0.812027 48.6528 0.234027C44.3708 -0.00397322 41.6179 0.381028 39.5229 1.51003Z" fill="#F3FFFF"/>
<path fill-rule="evenodd" clip-rule="evenodd" d="M39.3778 1.59101C37.6478 2.44401 35.2288 4.21001 34.0028 5.51501C31.9008 7.75301 31.8708 7.98502 33.4818 9.59601C35.3788 11.493 37.3448 16.005 36.5998 16.751C36.3358 17.014 35.8328 16.085 35.4818 14.686C35.1298 13.286 33.9838 11.363 32.9328 10.413C31.8828 9.46201 31.0228 8.08701 31.0228 7.35801C31.0228 6.62901 29.8948 5.74901 28.5158 5.40301C21.5428 3.65301 13.5408 8.90201 12.4108 15.969C11.9038 19.137 11.3258 19.883 9.0218 20.344C3.8988 21.369 0.820802 25.038 0.269802 30.778C-0.198198 35.644 -0.022198 36.149 3.2978 39.469L6.8228 42.994H30.9678H55.1138L57.5678 40.539C62.1468 35.961 59.5018 29.166 52.2998 27.001C49.9718 26.301 49.8738 26.152 51.6958 26.08C52.8918 26.033 55.2148 27.127 56.8608 28.511L59.8518 31.027L61.9588 28.348C64.7328 24.821 65.3558 22.025 64.8168 15.52C64.0288 6.01801 57.2238 -0.0289852 47.3718 0.0170148C44.7048 0.0290148 41.1078 0.738014 39.3778 1.59101ZM46.7998 17.551C48.4638 18.716 48.9938 20.036 48.9078 22.801L48.7928 26.494L48.0478 22.64C47.6388 20.52 46.6778 18.389 45.9128 17.905C44.0298 16.712 40.2828 16.764 39.5228 17.994C39.1828 18.544 38.3958 18.994 37.7728 18.994C37.1498 18.994 37.5138 18.333 38.5818 17.526C41.1158 15.609 44.0408 15.618 46.7998 17.551Z" fill="#F2F2F1"/>
<path fill-rule="evenodd" clip-rule="evenodd" d="M39.5248 1.56902C35.8958 3.46202 33.0228 5.96802 33.0228 7.24102C33.0228 7.75702 33.9228 9.32302 35.0228 10.721C36.1228 12.12 37.0228 14.06 37.0228 15.034C37.0228 16.524 37.6608 16.718 41.0628 16.262C44.3618 15.819 45.5538 16.144 47.5628 18.031C49.0508 19.429 50.0228 21.459 50.0228 23.168C50.0228 25.53 50.4418 25.994 52.5708 25.994C54.0138 25.994 56.1378 27.094 57.4688 28.531L59.8198 31.067L61.9428 28.368C64.7328 24.821 65.3568 22.034 64.8168 15.52C64.0288 6.02502 57.2428 -0.0119821 47.3718 1.78567e-05C44.7048 0.00401786 41.1738 0.710018 39.5248 1.56902Z" fill="#EE977F"/>
<path fill-rule="evenodd" clip-rule="evenodd" d="M39.3478 1.55003C37.6008 2.44203 35.4158 4.00703 34.4908 5.02903C32.9118 6.77403 32.9298 7.05703 34.7848 9.69003C35.8718 11.232 37.0888 13.552 37.4908 14.845C38.0228 16.555 38.5208 16.896 39.3218 16.095C42.4858 12.931 50.0228 17.407 50.0228 22.449C50.0228 24.293 50.5518 24.994 51.9458 24.994C53.0038 24.994 55.2068 26.119 56.8408 27.494C58.4748 28.869 60.0908 29.994 60.4318 29.994C62.3248 29.994 65.0158 23.042 65.0188 18.145C65.0268 7.30903 59.0728 0.79903 48.6528 0.25103C44.4328 0.0290296 41.5338 0.434029 39.3478 1.55003Z" fill="#EC6E4C"/>
<path fill-rule="evenodd" clip-rule="evenodd" d="M33.0228 6.87202C33.0228 7.35402 33.6748 8.29002 34.4718 8.95202C35.2688 9.61302 36.4418 11.734 37.0798 13.666C37.9178 16.205 38.5418 16.875 39.3308 16.086C42.5418 12.875 51.4858 18.506 50.3118 22.998C49.8948 24.59 50.2838 24.994 52.2318 24.994C53.5748 24.994 55.7308 26.119 57.0228 27.494C58.3148 28.869 59.7978 29.994 60.3188 29.994C61.4558 29.994 58.6598 25.552 57.4008 25.359C53.7888 24.806 52.1518 23.414 50.9958 19.912C50.2848 17.757 49.0998 15.994 48.3628 15.994C47.6258 15.994 47.0228 15.544 47.0228 14.994C47.0228 14.444 44.9978 13.994 42.5228 13.994C40.0478 13.994 37.9668 13.544 37.8978 12.994C37.8288 12.444 37.7168 11.657 37.6478 11.244C37.4528 10.074 33.0228 5.88502 33.0228 6.87202Z" fill="#EC7150"/>
<path fill-rule="evenodd" clip-rule="evenodd" d="M33.0228 6.67703C33.0228 7.26703 33.6498 8.26903 34.4148 8.90503C35.1808 9.54003 36.3458 11.361 37.0048 12.95C38.0688 15.52 38.5728 15.779 41.5658 15.293C44.3918 14.835 45.4348 15.252 48.0848 17.902C50.2068 20.024 51.0708 21.701 50.7248 23.025C50.3268 24.549 50.7138 24.994 52.4418 24.994C53.6698 24.994 55.7308 26.119 57.0228 27.494C58.3148 28.869 59.8558 29.976 60.4468 29.953C61.8888 29.899 54.9248 23.994 53.4188 23.994C52.7708 23.994 51.9478 22.831 51.5908 21.409C50.5428 17.233 46.2998 13.994 41.8768 13.994C39.7568 13.994 38.0228 13.631 38.0228 13.188C38.0228 12.745 36.8978 10.858 35.5228 8.99403C34.1478 7.13003 33.0228 6.08803 33.0228 6.67703Z" fill="#EC633E"/>
<path fill-rule="evenodd" clip-rule="evenodd" d="M33.0228 6.25501C33.0228 6.61301 34.1478 8.56301 35.5228 10.589C36.8978 12.615 38.0228 13.848 38.0228 13.328C38.0228 12.808 36.8978 10.858 35.5228 8.994C34.1478 7.13 33.0228 5.89801 33.0228 6.25501ZM41.2918 14.687C42.2648 14.941 43.6148 14.924 44.2918 14.65C44.9688 14.376 44.1728 14.169 42.5228 14.189C40.8728 14.209 40.3188 14.433 41.2918 14.687ZM48.1088 17.612C49.4368 19.327 50.7238 20.551 50.9698 20.332C51.2158 20.113 50.1288 18.71 48.5558 17.214L45.6948 14.494L48.1088 17.612ZM50.7728 24.656C51.4608 24.934 52.5858 24.934 53.2728 24.656C53.9608 24.379 53.3978 24.152 52.0228 24.152C50.6478 24.152 50.0858 24.379 50.7728 24.656ZM55.0228 25.424C55.0228 25.699 55.9228 26.405 57.0228 26.994C58.1228 27.583 59.0228 27.839 59.0228 27.564C59.0228 27.289 58.1228 26.583 57.0228 25.994C55.9228 25.405 55.0228 25.149 55.0228 25.424Z" fill="#EB5D37"/>
<path fill-rule="evenodd" clip-rule="evenodd" d="M33.0228 6.70501C33.0228 7.27901 33.8108 8.36701 34.7728 9.12201C36.3918 10.391 36.4128 10.344 35.0558 8.49402C34.2488 7.39402 33.4618 6.30702 33.3058 6.07702C33.1498 5.84802 33.0228 6.13101 33.0228 6.70501ZM36.5868 12.287C36.9628 13.273 37.5218 13.828 37.8298 13.52C38.1378 13.213 37.8308 12.406 37.1468 11.727C36.1588 10.747 36.0448 10.862 36.5868 12.287ZM41.2918 14.687C42.2648 14.941 43.6148 14.924 44.2918 14.65C44.9688 14.376 44.1728 14.169 42.5228 14.189C40.8728 14.209 40.3188 14.433 41.2918 14.687ZM50.8358 24.677C51.5568 24.966 52.4198 24.93 52.7518 24.598C53.0838 24.266 52.4938 24.03 51.4398 24.073C50.2748 24.121 50.0378 24.358 50.8358 24.677Z" fill="#EB572F"/>
</svg>
